<svg width="1240.4300292968749px" height="162.0800018310547px" xmlns="http://www.w3.org/2000/svg" viewBox="-370.21501464843743 -6.040000915527344 1240.4300292968749 162.0800018310547" style="background: rgba(209, 102, 7, 0.855);" preserveAspectRatio="xMidYMid"><defs><filter id="editing-cake" x="-100%" y="-100%" width="300%" height="300%"><feFlood flood-color="#2d1500" result="flood-shadow"></feFlood><feFlood flood-color="#894619"></feFlood><feComposite operator="in" in2="SourceAlpha"></feComposite><feConvolveMatrix order="7,10" divisor="1" result="conv" kernelMatrix="0 0 0 1 0 0 0 0 0 1 0 1 0 0 0 0 1 0 1 0 0 0 1 0 0 0 1 0 0 1 0 0 0 1 0 0 1 0 0 0 1 0 1 0 0 0 0 0 1 1 0 0 0 0 0 1 0 1 1 0 1 1 0 0 0 0 1 0 0 0 "></feConvolveMatrix><feGaussianBlur stdDeviation="0.5"></feGaussianBlur><feOffset dy="4" result="offset"></feOffset><feComposite operator="in" in="flood-shadow" in2="offset"></feComposite><feGaussianBlur stdDeviation="4"></feGaussianBlur><feComponentTransfer><feFuncA type="linear" slope="0.7" intercept="-0.2"></feFuncA></feComponentTransfer><feOffset dy="4" result="shadow"></feOffset><feGaussianBlur in="SourceGraphic" stdDeviation="0.5"></feGaussianBlur><feOffset dy="0" result="x0"></feOffset><feGaussianBlur in="SourceGraphic" stdDeviation="1"></feGaussianBlur><feComponentTransfer><feFuncA type="linear" slope="0.8" intercept="-.01"></feFuncA></feComponentTransfer><feOffset dy="1" result="x1"></feOffset><feGaussianBlur in="SourceGraphic" stdDeviation="2"></feGaussianBlur><feComponentTransfer><feFuncA type="linear" slope="0.7" intercept="-.01"></feFuncA></feComponentTransfer><feOffset dy="2" result="x2"></feOffset><feGaussianBlur in="SourceGraphic" stdDeviation="3"></feGaussianBlur><feComponentTransfer><feFuncA type="linear" slope="0.6" intercept="-.01"></feFuncA></feComponentTransfer><feOffset dy="3" result="x3"></feOffset><feMerge><feMergeNode in="shadow"></feMergeNode><feMergeNode in="offset"></feMergeNode><feMergeNode in="x3"></feMergeNode><feMergeNode in="x2"></feMergeNode><feMergeNode in="x1"></feMergeNode><feMergeNode in="x0"></feMergeNode></feMerge></filter></defs><g filter="url(#editing-cake)"><g transform="translate(-202.33001518249512, 112.64500427246094)"><path d="M42.39-74.35L42.39-74.35Q49.16-74.35 54.71-72.38L54.71-72.38L54.71-72.38Q60.25-70.41 65.42-66.08L65.42-66.08L65.42-66.08Q66.46-65.33 66.46-63.92L66.46-63.92L66.46-63.92Q66.46-63.17 66.08-62.56L66.08-62.56L66.08-62.56Q65.71-61.95 65.05-61.66L65.05-61.66L65.05-61.66Q64.86-61.01 64.20-60.63L64.20-60.63L64.20-60.63Q63.54-60.25 62.79-60.25L62.79-60.25L62.79-60.25Q61.38-60.25 60.44-61.10L60.44-61.10L60.44-61.10Q56.78-64.39 52.45-65.89L52.45-65.89L52.45-65.89Q48.13-67.40 42.39-67.40L42.39-67.40L42.39-67.40Q34.50-67.40 27.73-63.22L27.73-63.22L27.73-63.22Q20.96-59.03 16.97-51.98L16.97-51.98L16.97-51.98Q12.97-44.93 12.97-36.75L12.97-36.75L12.97-36.75Q12.97-28.39 16.92-21.34L16.92-21.34L16.92-21.34Q20.87-14.29 27.64-10.15L27.64-10.15L27.64-10.15Q34.40-6.02 42.39-6.02L42.39-6.02L42.39-6.02Q52.64-6.02 60.91-12.60L60.91-12.60L60.91-12.60Q61.95-13.35 62.98-13.35L62.98-13.35L62.98-13.35Q64.39-13.35 65.42-12.36L65.42-12.36L65.42-12.36Q66.46-11.37 66.46-9.78L66.46-9.78L66.46-9.78Q66.46-8.27 65.42-7.14L65.42-7.14L65.42-7.14Q56.59 0.94 42.39 0.94L42.39 0.94L42.39 0.94Q32.43 0.94 24.06-4.14L24.06-4.14L24.06-4.14Q15.70-9.21 10.76-17.86L10.76-17.86L10.76-17.86Q5.83-26.51 5.83-36.75L5.83-36.75L5.83-36.75Q5.83-46.91 10.72-55.55L10.72-55.55L10.72-55.55Q15.60-64.20 23.97-69.28L23.97-69.28L23.97-69.28Q32.34-74.35 42.39-74.35L42.39-74.35ZM115.81-74.35L115.81-74.35Q126.43-74.35 135.03-69.47L135.03-69.47L135.03-69.47Q143.63-64.58 148.47-56.02L148.47-56.02L148.47-56.02Q153.31-47.47 153.31-36.75L153.31-36.75L153.31-36.75Q153.31-26.04 148.47-17.44L148.47-17.44L148.47-17.44Q143.63-8.84 135.03-3.95L135.03-3.95L135.03-3.95Q126.43 0.94 115.81 0.94L115.81 0.94L115.81 0.94Q105.09 0.94 96.54-3.95L96.54-3.95L96.54-3.95Q87.98-8.84 83.14-17.44L83.14-17.44L83.14-17.44Q78.30-26.04 78.30-36.75L78.30-36.75L78.30-36.75Q78.30-47.47 83.14-56.02L83.14-56.02L83.14-56.02Q87.98-64.58 96.54-69.47L96.54-69.47L96.54-69.47Q105.09-74.35 115.81-74.35L115.81-74.35ZM115.81-67.40L115.81-67.40Q107.16-67.40 100.25-63.36L100.25-63.36L100.25-63.36Q93.34-59.31 89.39-52.31L89.39-52.31L89.39-52.31Q85.45-45.31 85.45-36.75L85.45-36.75L85.45-36.75Q85.45-28.11 89.39-21.10L89.39-21.10L89.39-21.10Q93.34-14.10 100.25-10.06L100.25-10.06L100.25-10.06Q107.16-6.02 115.81-6.02L115.81-6.02L115.81-6.02Q124.36-6.02 131.27-10.06L131.27-10.06L131.27-10.06Q138.18-14.10 142.13-21.10L142.13-21.10L142.13-21.10Q146.08-28.11 146.08-36.75L146.08-36.75L146.08-36.75Q146.08-45.31 142.13-52.31L142.13-52.31L142.13-52.31Q138.18-59.31 131.27-63.36L131.27-63.36L131.27-63.36Q124.36-67.40 115.81-67.40L115.81-67.40ZM202.38-74.35L202.38-74.35Q213.00-74.35 221.61-69.47L221.61-69.47L221.61-69.47Q230.21-64.58 235.05-56.02L235.05-56.02L235.05-56.02Q239.89-47.47 239.89-36.75L239.89-36.75L239.89-36.75Q239.89-26.04 235.05-17.44L235.05-17.44L235.05-17.44Q230.21-8.84 221.61-3.95L221.61-3.95L221.61-3.95Q213.00 0.94 202.38 0.94L202.38 0.94L202.38 0.94Q191.67 0.94 183.11-3.95L183.11-3.95L183.11-3.95Q174.56-8.84 169.72-17.44L169.72-17.44L169.72-17.44Q164.88-26.04 164.88-36.75L164.88-36.75L164.88-36.75Q164.88-47.47 169.72-56.02L169.72-56.02L169.72-56.02Q174.56-64.58 183.11-69.47L183.11-69.47L183.11-69.47Q191.67-74.35 202.38-74.35L202.38-74.35ZM202.38-67.40L202.38-67.40Q193.73-67.40 186.82-63.36L186.82-63.36L186.82-63.36Q179.92-59.31 175.97-52.31L175.97-52.31L175.97-52.31Q172.02-45.31 172.02-36.75L172.02-36.75L172.02-36.75Q172.02-28.11 175.97-21.10L175.97-21.10L175.97-21.10Q179.92-14.10 186.82-10.06L186.82-10.06L186.82-10.06Q193.73-6.02 202.38-6.02L202.38-6.02L202.38-6.02Q210.94-6.02 217.84-10.06L217.84-10.06L217.84-10.06Q224.75-14.10 228.70-21.10L228.70-21.10L228.70-21.10Q232.65-28.11 232.65-36.75L232.65-36.75L232.65-36.75Q232.65-45.31 228.70-52.31L228.70-52.31L228.70-52.31Q224.75-59.31 217.84-63.36L217.84-63.36L217.84-63.36Q210.94-67.40 202.38-67.40L202.38-67.40ZM262.35-3.67L262.35-3.67Q262.35-2.16 261.32-1.08L261.32-1.08L261.32-1.08Q260.29 0 258.69 0L258.69 0L258.69 0Q257.18 0 256.10-1.08L256.10-1.08L256.10-1.08Q255.02-2.16 255.02-3.67L255.02-3.67L255.02-69.75L255.02-69.75Q255.02-71.25 256.10-72.33L256.10-72.33L256.10-72.33Q257.18-73.41 258.69-73.41L258.69-73.41L258.69-73.41Q260.29-73.41 261.32-72.38L261.32-72.38L261.32-72.38Q262.35-71.35 262.35-69.75L262.35-69.75L262.35-37.79L296.66-72.10L296.66-72.10Q297.98-73.41 299.58-73.41L299.58-73.41L299.58-73.41Q301.18-73.41 302.07-72.47L302.07-72.47L302.07-72.47Q302.96-71.53 302.96-70.12L302.96-70.12L302.96-70.12Q302.96-68.43 301.74-67.12L301.74-67.12L275.98-41.36L302.02-5.83L302.02-5.83Q302.77-4.61 302.77-3.57L302.77-3.57L302.77-3.57Q302.77-2.16 301.79-1.08L301.79-1.08L301.79-1.08Q300.80 0 299.39 0L299.39 0L299.39 0Q297.32 0 296.29-1.60L296.29-1.60L270.72-36.19L262.35-27.73L262.35-3.67ZM316.59-69.75L316.59-69.75Q316.59-71.35 317.67-72.38L317.67-72.38L317.67-72.38Q318.75-73.41 320.26-73.41L320.26-73.41L320.26-73.41Q321.86-73.41 322.89-72.38L322.89-72.38L322.89-72.38Q323.92-71.35 323.92-69.75L323.92-69.75L323.92-3.67L323.92-3.67Q323.92-2.16 322.89-1.08L322.89-1.08L322.89-1.08Q321.86 0 320.26 0L320.26 0L320.26 0Q318.75 0 317.67-1.08L317.67-1.08L317.67-1.08Q316.59-2.16 316.59-3.67L316.59-3.67L316.59-69.75ZM394.14-69.75L394.14-69.75Q394.14-71.35 395.22-72.38L395.22-72.38L395.22-72.38Q396.30-73.41 397.81-73.41L397.81-73.41L397.81-73.41Q399.41-73.41 400.44-72.38L400.44-72.38L400.44-72.38Q401.47-71.35 401.47-69.75L401.47-69.75L401.47-3.67L401.47-3.67Q401.47-2.16 400.44-1.08L400.44-1.08L400.44-1.08Q399.41 0 397.81 0L397.81 0L397.81 0Q395.93 0 395.08-1.22L395.08-1.22L350.06-60.25L350.06-3.67L350.06-3.67Q350.06-2.16 349.02-1.08L349.02-1.08L349.02-1.08Q347.99 0 346.39 0L346.39 0L346.39 0Q344.79 0 343.76-1.03L343.76-1.03L343.76-1.03Q342.72-2.07 342.72-3.67L342.72-3.67L342.72-69.75L342.72-69.75Q342.72-71.35 343.76-72.38L343.76-72.38L343.76-72.38Q344.79-73.41 346.39-73.41L346.39-73.41L346.39-73.41Q348.08-73.41 349.21-72.10L349.21-72.10L394.14-13.07L394.14-69.75ZM473.67-36.66L473.67-36.66Q475.26-36.66 476.30-35.67L476.30-35.67L476.30-35.67Q477.33-34.69 477.33-33.09L477.33-33.09L477.33-9.78L477.33-9.78Q477.33-8.18 476.30-7.14L476.30-7.14L476.30-7.14Q467.56 0.94 453.27 0.94L453.27 0.94L453.27 0.94Q443.30 0.94 434.94-4.14L434.94-4.14L434.94-4.14Q426.57-9.21 421.64-17.86L421.64-17.86L421.64-17.86Q416.70-26.51 416.70-36.75L416.70-36.75L416.70-36.75Q416.70-46.91 421.59-55.55L421.59-55.55L421.59-55.55Q426.48-64.20 434.84-69.28L434.84-69.28L434.84-69.28Q443.21-74.35 453.27-74.35L453.27-74.35L453.27-74.35Q460.04-74.35 465.58-72.38L465.58-72.38L465.58-72.38Q471.13-70.41 476.30-66.08L476.30-66.08L476.30-66.08Q477.33-65.33 477.33-63.92L477.33-63.92L477.33-63.92Q477.33-63.17 476.96-62.56L476.96-62.56L476.96-62.56Q476.58-61.95 475.92-61.66L475.92-61.66L475.92-61.66Q475.73-61.01 475.08-60.58L475.08-60.58L475.08-60.58Q474.42-60.16 473.67-60.16L473.67-60.16L473.67-60.16Q472.35-60.16 471.32-61.10L471.32-61.10L471.32-61.10Q467.65-64.39 463.33-65.89L463.33-65.89L463.33-65.89Q459.00-67.40 453.27-67.40L453.27-67.40L453.27-67.40Q445.37-67.40 438.60-63.22L438.60-63.22L438.60-63.22Q431.84-59.03 427.84-51.98L427.84-51.98L427.84-51.98Q423.85-44.93 423.85-36.75L423.85-36.75L423.85-36.75Q423.85-28.39 427.79-21.34L427.79-21.34L427.79-21.34Q431.74-14.29 438.51-10.15L438.51-10.15L438.51-10.15Q445.28-6.02 453.27-6.02L453.27-6.02L453.27-6.02Q462.39-6.02 470.19-11.37L470.19-11.37L470.19-30.17L455.52-30.17L455.52-30.17Q453.93-30.17 452.89-31.11L452.89-31.11L452.89-31.11Q451.86-32.05 451.86-33.46L451.86-33.46L451.86-33.46Q451.86-34.87 452.89-35.77L452.89-35.77L452.89-35.77Q453.93-36.66 455.52-36.66L455.52-36.66L473.67-36.66ZM551.22-40.42L551.22-40.42Q552.81-40.42 553.85-39.43L553.85-39.43L553.85-39.43Q554.88-38.45 554.88-36.85L554.88-36.85L554.88-36.85Q554.88-35.34 553.85-34.31L553.85-34.31L553.85-34.31Q552.81-33.28 551.22-33.28L551.22-33.28L521.79-33.28L521.79-3.67L521.79-3.67Q521.79-2.16 520.76-1.08L520.76-1.08L520.76-1.08Q519.73 0 518.13 0L518.13 0L518.13 0Q516.62 0 515.54-1.08L515.54-1.08L515.54-1.08Q514.46-2.16 514.46-3.67L514.46-3.67L514.46-69.75L514.46-69.75Q514.46-71.35 515.54-72.38L515.54-72.38L515.54-72.38Q516.62-73.41 518.13-73.41L518.13-73.41L562.21-73.41L562.21-73.41Q563.81-73.41 564.85-72.38L564.85-72.38L564.85-72.38Q565.88-71.35 565.88-69.84L565.88-69.84L565.88-69.84Q565.88-68.34 564.85-67.35L564.85-67.35L564.85-67.35Q563.81-66.36 562.21-66.36L562.21-66.36L521.79-66.36L521.79-40.42L551.22-40.42ZM624.91-5.64L624.91-5.64Q625.76-4.23 625.76-3.10L625.76-3.10L625.76-3.10Q625.76-1.69 624.72-0.85L624.72-0.85L624.72-0.85Q623.69 0 622.00 0L622.00 0L622.00 0Q620.87 0 620.12-0.47L620.12-0.47L620.12-0.47Q619.37-0.94 618.80-1.88L618.80-1.88L601.88-28.76L600.28-28.76L586.37-28.76L586.37-3.67L586.37-3.67Q586.37-2.07 585.34-1.03L585.34-1.03L585.34-1.03Q584.30 0 582.71 0L582.71 0L582.71 0Q581.11 0 580.07-1.03L580.07-1.03L580.07-1.03Q579.04-2.07 579.04-3.67L579.04-3.67L579.04-69.75L579.04-69.75Q579.04-71.35 580.07-72.38L580.07-72.38L580.07-72.38Q581.11-73.41 582.71-73.41L582.71-73.41L600.28-73.41L600.28-73.41Q607.15-73.41 612.50-70.55L612.50-70.55L612.50-70.55Q617.86-67.68 620.92-62.51L620.92-62.51L620.92-62.51Q623.97-57.34 623.97-50.76L623.97-50.76L623.97-50.76Q623.97-43.52 620.07-38.07L620.07-38.07L620.07-38.07Q616.17-32.62 609.50-30.27L609.50-30.27L624.91-5.64ZM586.37-35.81L600.28-35.81L600.28-35.81Q604.98-35.81 608.79-37.74L608.79-37.74L608.79-37.74Q612.60-39.67 614.71-43.05L614.71-43.05L614.71-43.05Q616.83-46.44 616.83-50.76L616.83-50.76L616.83-50.76Q616.83-55.27 614.71-58.84L614.71-58.84L614.71-58.84Q612.60-62.42 608.84-64.39L608.84-64.39L608.84-64.39Q605.08-66.36 600.28-66.36L600.28-66.36L586.37-66.36L586.37-35.81ZM684.88-7.05L684.88-7.05Q686.48-7.05 687.52-6.06L687.52-6.06L687.52-6.06Q688.55-5.08 688.55-3.57L688.55-3.57L688.55-3.57Q688.55-2.07 687.52-1.03L687.52-1.03L687.52-1.03Q686.48 0 684.88 0L684.88 0L640.80 0L640.80 0Q639.29 0 638.21-1.08L638.21-1.08L638.21-1.08Q637.13-2.16 637.13-3.67L637.13-3.67L637.13-69.75L637.13-69.75Q637.13-71.35 638.21-72.38L638.21-72.38L638.21-72.38Q639.29-73.41 640.80-73.41L640.80-73.41L684.88-73.41L684.88-73.41Q686.48-73.41 687.52-72.38L687.52-72.38L687.52-72.38Q688.55-71.35 688.55-69.84L688.55-69.84L688.55-69.84Q688.55-68.34 687.52-67.35L687.52-67.35L687.52-67.35Q686.48-66.36 684.88-66.36L684.88-66.36L644.46-66.36L644.46-40.42L673.89-40.42L673.89-40.42Q675.48-40.42 676.52-39.39L676.52-39.39L676.52-39.39Q677.55-38.35 677.55-36.85L677.55-36.85L677.55-36.85Q677.55-35.34 676.47-34.31L676.47-34.31L676.47-34.31Q675.39-33.28 673.89-33.28L673.89-33.28L644.46-33.28L644.46-7.05L684.88-7.05ZM753.60-69.75L753.60-69.75Q753.60-71.35 754.68-72.38L754.68-72.38L754.68-72.38Q755.76-73.41 757.26-73.41L757.26-73.41L757.26-73.41Q758.86-73.41 759.90-72.38L759.90-72.38L759.90-72.38Q760.93-71.35 760.93-69.75L760.93-69.75L760.93-3.67L760.93-3.67Q760.93-2.16 759.90-1.08L759.90-1.08L759.90-1.08Q758.86 0 757.26 0L757.26 0L757.26 0Q755.38 0 754.54-1.22L754.54-1.22L709.51-60.25L709.51-3.67L709.51-3.67Q709.51-2.16 708.48-1.08L708.48-1.08L708.48-1.08Q707.44 0 705.85 0L705.85 0L705.85 0Q704.25 0 703.21-1.03L703.21-1.03L703.21-1.03Q702.18-2.07 702.18-3.67L702.18-3.67L702.18-69.75L702.18-69.75Q702.18-71.35 703.21-72.38L703.21-72.38L703.21-72.38Q704.25-73.41 705.85-73.41L705.85-73.41L705.85-73.41Q707.54-73.41 708.67-72.10L708.67-72.10L753.60-13.07L753.60-69.75ZM778.98-66.83L778.98-66.83Q777.29-66.83 776.35-67.68L776.35-67.68L776.35-67.68Q775.41-68.53 775.41-70.03L775.41-70.03L775.41-70.03Q775.41-71.44 776.44-72.43L776.44-72.43L776.44-72.43Q777.47-73.41 779.07-73.41L779.07-73.41L830.02-73.41L830.02-73.41Q831.71-73.41 832.70-72.29L832.70-72.29L832.70-72.29Q833.69-71.16 833.69-69.65L833.69-69.65L833.69-69.65Q833.69-68.43 833.03-67.68L833.03-67.68L784.24-6.58L830.02-6.58L830.02-6.58Q831.62-6.58 832.65-5.69L832.65-5.69L832.65-5.69Q833.69-4.79 833.69-3.29L833.69-3.29L833.69-3.29Q833.69-1.88 832.65-0.94L832.65-0.94L832.65-0.94Q831.62 0 830.02 0L830.02 0L778.60 0L778.60 0Q777.00 0 775.97-1.13L775.97-1.13L775.97-1.13Q774.94-2.26 774.94-3.67L774.94-3.67L774.94-3.67Q774.94-5.08 775.69-5.92L775.69-5.92L824.29-66.83L778.98-66.83ZM895.63-73.41L895.63-73.41Q897.04-73.41 897.93-72.43L897.93-72.43L897.93-72.43Q898.83-71.44 898.83-70.03L898.83-70.03L898.83-70.03Q898.83-68.71 898.17-67.68L898.17-67.68L872.51-27.17L872.51-3.67L872.51-3.67Q872.51-2.16 871.47-1.08L871.47-1.08L871.47-1.08Q870.44 0 868.84 0L868.84 0L868.84 0Q867.34 0 866.26-1.08L866.26-1.08L866.26-1.08Q865.18-2.16 865.18-3.67L865.18-3.67L865.18-27.17L839.61-67.68L839.61-67.68Q838.86-68.90 838.86-70.03L838.86-70.03L838.86-70.03Q838.86-71.44 839.89-72.43L839.89-72.43L839.89-72.43Q840.92-73.41 842.43-73.41L842.43-73.41L842.43-73.41Q843.46-73.41 844.17-72.99L844.17-72.99L844.17-72.99Q844.87-72.57 845.53-71.63L845.53-71.63L868.94-33.93L892.25-71.44L892.25-71.44Q893-72.47 893.75-72.94L893.75-72.94L893.75-72.94Q894.50-73.41 895.63-73.41L895.63-73.41Z" fill="#ffd800"></path></g></g><style>text {
  font-size: 64px;
  font-family: Arial Black;
  dominant-baseline: central;
  text-anchor: middle;
}</style></svg>